<svg width="270" height="76" viewBox="0 0 270 76" fill="none" xmlns="http://www.w3.org/2000/svg">
<g clip-path="url(#clip0_270_3008)">
<path d="M124.478 0C71.6972 0 25.5281 9.14182 0 22.7683C26.563 11.4417 68.5349 4.13969 115.796 4.13969C196.175 4.13969 261.318 25.2981 261.318 51.4012C261.318 60.3705 253.614 68.7649 240.275 75.8944C258.903 67.96 270 58.0132 270 47.2615C270 21.1584 204.857 0 124.478 0Z" fill="#D0043C"/>
<path d="M24.5508 33.52H37.7173L42.7769 53.2986L47.8366 33.52H61.0031V66.0051H52.8962V41.2244L46.5142 66.0051H39.0972L32.7727 41.2244V66.0051H24.5508V33.52Z" fill="#002A5C"/>
<path d="M92.9708 56.4608H74.9171C75.2621 59.5656 76.8145 61.1755 79.5168 61.1755C81.1841 61.1755 82.3915 60.6005 83.5989 59.1056L92.5108 59.9106C89.636 64.8552 86.2437 66.4651 79.1718 66.4651C74.2846 66.4651 71.5248 65.4876 69.0525 62.9578C66.8677 60.7155 65.7178 57.7257 65.7178 54.276C65.7178 50.3088 67.0977 47.1465 69.7425 44.9042C72.2148 42.8343 74.9746 41.9719 79.2868 41.9719C84.0014 41.9719 87.2212 43.0643 89.5785 45.4791C90.9009 46.859 91.8208 48.3539 92.2808 50.0788C92.8558 52.0911 92.9708 52.9536 92.9708 55.5409V56.4608ZM83.8289 52.1486C83.484 48.8714 82.0466 47.2615 79.5168 47.2615C76.8145 47.2615 75.3196 48.8714 74.9171 52.1486H83.8289Z" fill="#002A5C"/>
<path d="M113.324 62.4979C111.6 64.6827 110.622 65.4302 108.782 66.0051C107.805 66.3501 106.77 66.5226 105.735 66.5226C99.6979 66.5226 95.8457 61.5779 95.8457 53.701C95.8457 46.629 99.7554 42.0294 105.735 42.0294C108.667 42.0294 110.795 42.8343 112.634 44.8467V33.52H121.719V66.0051H113.267V62.4979H113.324ZM108.725 48.6414C106.252 48.6414 104.93 50.5388 104.93 54.161C104.93 57.8407 106.31 59.8531 108.725 59.8531C111.312 59.8531 112.749 57.7832 112.749 54.1035C112.749 50.8262 111.14 48.6414 108.725 48.6414Z" fill="#002A5C"/>
<path d="M137.932 33.52V42.4319H142.877V48.9864H137.932V57.3233C137.932 59.5656 138.335 60.083 139.83 60.083C140.462 60.083 141.267 59.9106 142.532 59.5081L143.222 65.7751C140.635 66.2926 139.197 66.4651 137.07 66.4651C130.745 66.4651 128.906 64.4527 128.906 57.3233V48.9864H125.571V42.4319H128.906V38.1197L137.932 33.52Z" fill="#002A5C"/>
<path d="M173.292 56.4608H155.238C155.583 59.5656 157.136 61.1755 159.838 61.1755C161.505 61.1755 162.713 60.6005 163.92 59.1056L172.832 59.9106C169.957 64.8552 166.565 66.4651 159.493 66.4651C154.606 66.4651 151.846 65.4876 149.374 62.9578C147.189 60.7155 146.039 57.7257 146.039 54.276C146.039 50.3088 147.419 47.1465 150.064 44.9042C152.536 42.8343 155.296 41.9719 159.608 41.9719C164.323 41.9719 167.542 43.0643 169.9 45.4791C171.222 46.859 172.142 48.3539 172.602 50.0788C173.177 52.0911 173.292 52.9536 173.292 55.5409V56.4608ZM164.15 52.1486C163.805 48.8714 162.368 47.2615 159.838 47.2615C157.136 47.2615 155.641 48.8714 155.238 52.1486H164.15Z" fill="#002A5C"/>
<path d="M194.508 51.1137C193.933 49.0439 192.611 48.0664 190.196 48.0664C187.034 48.0664 185.251 50.4238 185.251 54.5635C185.251 58.2432 187.034 60.4855 190.081 60.4855C192.553 60.4855 194.048 59.3356 194.853 56.8058L203.42 57.7832C202.673 60.4855 202.098 61.5204 200.315 63.2453C197.843 65.5451 194.968 66.5226 190.541 66.5226C184.964 66.5226 181.802 65.5451 179.214 62.7853C177.145 60.6005 176.225 58.0707 176.225 54.3335C176.225 50.3663 177.317 47.6065 179.789 45.3066C182.319 42.8918 185.251 41.9719 190.024 41.9719C197.268 41.9719 201.293 44.4442 203.018 50.0213L194.508 51.1137Z" fill="#002A5C"/>
<path d="M207.502 33.52H216.529V45.4791C219.002 42.8918 221.129 41.9144 224.521 41.9144C229.638 41.9144 232.398 45.0192 232.398 50.9987V65.9476H223.371V53.0686C223.371 50.2513 222.394 48.9864 220.209 48.9864C217.679 48.9864 216.529 50.8262 216.529 54.6785V65.9476H207.502V33.52Z" fill="#002A5C"/>
<path d="M28.2879 23.9182C28.1729 23.1708 27.7704 22.8833 27.023 22.8833C26.5055 22.8833 26.1606 23.1133 26.1606 23.5158C26.1606 23.8607 26.448 24.0332 27.1955 24.2057C28.6904 24.5507 29.4953 24.8382 30.0703 25.1831C30.6452 25.5856 30.9327 26.2756 30.9327 27.023C30.9327 27.828 30.5877 28.5179 30.0128 29.0354C29.3228 29.6103 28.5179 29.8403 27.3105 29.8403C26.1031 29.8403 25.1831 29.6678 24.6657 29.2078C24.3782 28.9779 24.0907 28.6904 23.9182 28.2879C23.6882 27.828 23.6307 27.598 23.5732 26.9655L25.9881 26.793C26.1031 27.713 26.563 28.1729 27.4255 28.1729C28.1154 28.1729 28.5754 27.828 28.5754 27.3105C28.5754 26.793 28.1729 26.5055 27.023 26.2756C25.3556 25.9306 24.6082 25.4706 24.2057 24.6657C24.0332 24.3782 23.9757 24.0332 23.9757 23.6883C23.9757 23.0558 24.2632 22.4234 24.7807 22.0209C25.4131 21.5034 26.218 21.2734 27.4255 21.2734C29.5528 21.2734 30.5877 22.0209 30.8177 23.6883L28.2879 23.9182Z" fill="#002A5C"/>
<path d="M31.335 21.4459H33.7498L34.6122 25.9881L35.8771 21.4459H38.2919L39.5569 25.9881L40.4193 21.4459H42.7766L40.9942 29.6103H38.5219L37.0845 24.4932L35.6471 29.6103H33.1748L31.335 21.4459Z" fill="#002A5C"/>
<path d="M43.6392 21.4459H50.4237V23.2283H46.169V24.5507H50.0787V26.2181H46.169V27.828H50.5386V29.6678H43.6392V21.4459Z" fill="#002A5C"/>
<path d="M51.8613 21.4459H55.5986C58.1284 21.4459 59.3933 22.8258 59.3933 25.5856C59.3933 27.023 59.1058 27.9429 58.3583 28.6329C58.0134 28.9779 57.6684 29.2078 57.2659 29.3228C56.8635 29.4378 56.116 29.5528 55.6561 29.5528H51.9188V21.4459H51.8613ZM54.3911 23.2858V27.7705H55.0236C55.771 27.7705 56.116 27.6555 56.346 27.4255C56.691 27.0805 56.8635 26.563 56.8635 25.5856C56.8635 23.9182 56.4035 23.2858 55.0236 23.2858H54.3911Z" fill="#002A5C"/>
<path d="M60.8306 21.4459H63.3604V29.6103H60.8306V21.4459Z" fill="#002A5C"/>
<path d="M69.5125 23.9182C69.3975 23.1708 68.995 22.8833 68.2476 22.8833C67.7301 22.8833 67.3852 23.1133 67.3852 23.5158C67.3852 23.8607 67.6726 24.0332 68.4201 24.2057C69.915 24.5507 70.7199 24.8382 71.2949 25.1831C71.8698 25.5856 72.1573 26.2756 72.1573 27.023C72.1573 27.828 71.8123 28.5179 71.2374 29.0354C70.5474 29.6103 69.7425 29.8403 68.5351 29.8403C67.3277 29.8403 66.4077 29.6678 65.8903 29.2078C65.6028 28.9779 65.3153 28.6904 65.1428 28.2879C64.9128 27.828 64.8553 27.598 64.7979 26.9655L67.2127 26.793C67.3277 27.713 67.7876 28.1729 68.6501 28.1729C69.34 28.1729 69.8 27.828 69.8 27.3105C69.8 26.793 69.3975 26.5055 68.2476 26.2756C66.5802 25.9306 65.8328 25.4706 65.4303 24.6657C65.2578 24.3782 65.2003 24.0332 65.2003 23.6883C65.2003 23.0558 65.4878 22.4234 66.0053 22.0209C66.6377 21.5034 67.4427 21.2734 68.6501 21.2734C70.7774 21.2734 71.8123 22.0209 72.0423 23.6883L69.5125 23.9182Z" fill="#002A5C"/>
<path d="M73.4219 21.4459H75.9517V24.3207H78.7115V21.4459H81.2413V29.6103H78.7115V26.3331H75.9517V29.6103H73.4219V21.4459Z" fill="#002A5C"/>
</g>
<defs>
<clipPath id="clip0_270_3008">
<rect width="270" height="75.8369" fill="white"/>
</clipPath>
</defs>
</svg>
